<svg width="976" height="40" viewBox="0 0 976 40" fill="none" xmlns="http://www.w3.org/2000/svg">
<rect y="7" width="976" height="27" rx="2" fill="#404950"/>
<rect x="31" y="19" width="915" height="2" fill="#72828E"/>
<circle cx="31" cy="20" r="5" fill="#FFEE2E"/>
<circle cx="161" cy="20" r="5" fill="#FFEE2E"/>
<circle cx="291" cy="20" r="5" fill="#FFEE2E"/>
<circle cx="421" cy="20" r="5" fill="#FFEE2E"/>
<circle cx="551" cy="19" r="5" fill="#FFEE2E"/>
<circle cx="681" cy="21" r="5" fill="#FFEE2E"/>
<circle cx="811" cy="20" r="5" fill="#FFEE2E"/>
<circle cx="941" cy="20" r="5" fill="#FFEE2E"/>
<path fill-rule="evenodd" clip-rule="evenodd" d="M302.477 19.9999C302.477 26.3438 297.344 31.4769 291 31.4769C284.657 31.4769 279.523 26.3438 279.523 19.9999C279.523 13.6561 284.657 8.52295 291 8.52295C297.344 8.52295 302.477 13.6561 302.477 19.9999ZM291 10.3147C296.376 10.3147 300.734 14.6246 300.734 19.9999C300.734 25.3752 296.376 29.7336 291 29.7336C285.625 29.7336 281.315 25.3752 281.315 19.9999C281.315 14.6246 285.625 10.3147 291 10.3147Z" fill="#FE9013"/>
<path fill-rule="evenodd" clip-rule="evenodd" d="M291 0C302.041 0 311 8.95884 311 20C311 31.0412 302.041 40 291 40C279.959 40 271 31.0412 271 20C271 8.95884 279.959 0 291 0ZM291 1.79177C301.073 1.79177 309.257 9.92736 309.257 20C309.257 30.0726 301.073 38.2567 291 38.2567C280.927 38.2567 272.792 30.0726 272.792 20C272.792 9.92736 280.927 1.79177 291 1.79177Z" fill="#FE9013"/>
</svg>
